<?xml version="1.0" encoding="UTF-8" standalone="no"?>
<svg
   xmlns:dc="http://purl.org/dc/elements/1.1/"
   xmlns:cc="http://creativecommons.org/ns#"
   xmlns:rdf="http://www.w3.org/1999/02/22-rdf-syntax-ns#"
   xmlns:svg="http://www.w3.org/2000/svg"
   xmlns="http://www.w3.org/2000/svg"
   xmlns:sodipodi="http://sodipodi.sourceforge.net/DTD/sodipodi-0.dtd"
   xmlns:inkscape="http://www.inkscape.org/namespaces/inkscape"
   width="210mm"
   height="297mm"
   viewBox="0 0 210 297"
   version="1.1"
   id="svg8"
   inkscape:version="1.0.1 (1.0.1+r75)"
   sodipodi:docname="layout-experiment.svg">
  <defs
     id="defs2" />
  <sodipodi:namedview
     id="base"
     pagecolor="#ffffff"
     bordercolor="#666666"
     borderopacity="1.0"
     inkscape:pageopacity="0.0"
     inkscape:pageshadow="2"
     inkscape:zoom="0.33327645"
     inkscape:cx="400"
     inkscape:cy="549.49821"
     inkscape:document-units="mm"
     inkscape:current-layer="layer1"
     inkscape:document-rotation="0"
     showgrid="false"
     inkscape:snap-intersection-paths="false"
     inkscape:object-nodes="false"
     inkscape:snap-nodes="false"
     inkscape:window-width="1299"
     inkscape:window-height="713"
     inkscape:window-x="67"
     inkscape:window-y="27"
     inkscape:window-maximized="1" />
  <metadata
     id="metadata5">
    <rdf:RDF>
      <cc:Work
         rdf:about="">
        <dc:format>image/svg+xml</dc:format>
        <dc:type
           rdf:resource="http://purl.org/dc/dcmitype/StillImage" />
        <dc:title></dc:title>
      </cc:Work>
    </rdf:RDF>
  </metadata>
  <g
     inkscape:label="Layer 1"
     inkscape:groupmode="layer"
     id="layer1">
    <path
       style="fill:none;stroke:#000000;stroke-width:0.264583px;stroke-linecap:butt;stroke-linejoin:miter;stroke-opacity:1"
       d="M 7.074758,8.0030332 C 5.9490048,74.134773 5.9490048,73.690418 5.9490048,73.690418 l -0.4241744,3.262567"
       id="path28" />
    <path
       style="fill:none;stroke:#000000;stroke-width:0.264583px;stroke-linecap:butt;stroke-linejoin:miter;stroke-opacity:1"
       d="M 5.5248304,76.952985 C 198.88997,77.314919 198.58068,76.755531 198.58068,76.755531 v 0"
       id="path32" />
    <path
       style="fill:none;stroke:#000000;stroke-width:0.264583px;stroke-linecap:butt;stroke-linejoin:miter;stroke-opacity:1"
       d="M 7.074758,8.0030332 C 198.93213,7.7359377 198.75279,9.3792377 198.75279,9.3792377 l -0.17211,67.3762913 v 0 0 0 0"
       id="path34" />
    <path
       style="fill:none;stroke:#000000;stroke-width:0.264583px;stroke-linecap:butt;stroke-linejoin:miter;stroke-opacity:1"
       d="M 27.608889,40.852224 C 5.9490048,73.690418 5.9490048,73.690418 5.9490048,73.690418 v 0 0"
       id="path36" />
    <path
       style="fill:none;stroke:#000000;stroke-width:0.264583px;stroke-linecap:butt;stroke-linejoin:miter;stroke-opacity:1"
       d="M 5.9490048,73.690418 C 50.693833,73.083012 50.693833,73.083012 50.693833,73.083012 L 27.608889,40.852224 v 0"
       id="path38" />
    <path
       style="fill:none;stroke:#000000;stroke-width:0.264583px;stroke-linecap:butt;stroke-linejoin:miter;stroke-opacity:1"
       d="M 370.57414,205.98205 Z"
       id="path40" />
    <ellipse
       style="fill:#a0649a;stroke-width:0.264583"
       id="path46"
       cx="175.43243"
       cy="28.55007"
       rx="20.216484"
       ry="17.311653" />
    <path
       style="fill:none;stroke:#000000;stroke-width:0.264583px;stroke-linecap:butt;stroke-linejoin:miter;stroke-opacity:1"
       d="m 7.4427733,100.19919 c -0.142167,188.3088 0.3130187,187.21646 0.3130187,187.21646 0,0 1.6943234,1.02945 1.4747256,1.07517 -0.2195978,0.0457 -0.2195978,1.24089 -0.2195978,1.24089"
       id="path50" />
    <path
       style="fill:none;stroke:#000000;stroke-width:0.264583px;stroke-linecap:butt;stroke-linejoin:miter;stroke-opacity:1"
       d="m 9.0109198,289.73171 c 193.0872502,1.03611 193.1723402,0.8985 193.1723402,0.8985 l 0.53969,-3.7166 c 0,0 -0.69863,2.53008 0,0 0.69862,-2.53005 1.21806,3.25178 1.21806,3.25178"
       id="path52" />
    <path
       style="fill:none;stroke:#000000;stroke-width:0.264583px;stroke-linecap:butt;stroke-linejoin:miter;stroke-opacity:1"
       d="M 202.72295,286.91361 C 200.32801,97.979877 200.32801,97.916086 200.32801,97.916086 l -0.0327,0.57264 v 0 0 C 7.4427733,100.19919 7.4427733,100.19919 7.4427733,100.19919 v 0 0"
       id="path64" />
    <path
       style="fill:none;stroke:#000000;stroke-width:0.264583px;stroke-linecap:butt;stroke-linejoin:miter;stroke-opacity:1"
       d="m 66.44115,51.281639 c 88.82664,0.859613 88.82664,0.859613 88.82664,0.859613 v 0.618699 0"
       id="path68" />
    <path
       style="fill:none;stroke:#000000;stroke-width:0.264583px;stroke-linecap:butt;stroke-linejoin:miter;stroke-opacity:1"
       d="m 66.44115,51.281639 c 0.412205,17.908042 0.826931,16.774125 0.826931,16.774125 v 0"
       id="path74" />
    <path
       style="fill:none;stroke:#000000;stroke-width:0.264583px;stroke-linecap:butt;stroke-linejoin:miter;stroke-opacity:1"
       d="m 67.268081,68.055764 c 87.156499,1.190342 87.156499,1.190342 87.156499,1.190342 v 0 0 c 0.84321,-17.104854 0.84321,-17.104854 0.84321,-17.104854 v 0.618699"
       id="path76" />
    <path
       style="fill:none;stroke:#000000;stroke-width:0.264583px;stroke-linecap:butt;stroke-linejoin:miter;stroke-opacity:1"
       d="M 285.51065,87.48333 Z"
       id="path78" />
    <path
       style="fill:none;stroke:#000000;stroke-width:0.264583px;stroke-linecap:butt;stroke-linejoin:miter;stroke-opacity:1"
       d="m 13.932341,68.556666 c 8.868384,-0.306658 4.685168,1.549884 7.763981,-2.114453 0.959055,-1.141444 2.717142,1.30029 4.178656,1.594679 0.61424,0.123721 2.591704,-0.170151 3.155626,-0.170151 2.227268,0 4.68657,-0.341458 6.597139,-0.493633 0.889813,-0.07087 6.954372,-1.020887 8.106606,0.07416 0.565571,0.537501 0.529593,1.713859 1.267288,1.967994 0.482637,0.16627 0,-1.020945 0,-1.531416 0,-1.029457 -6.291773,2.780168 -8.902671,-0.206928 -2.014339,-2.304576 -4.162978,0.481092 -7.576267,1.187511 -1.510307,0.312573 -5.532278,-0.296587 -6.307522,-0.74485 -0.748743,-0.43294 -0.614039,2.464589 -1.426319,2.167509 -0.323757,-3.959122 0.250325,-0.896689 -1.051859,0.106045 -0.432315,0.332899 0,-1.091271 0,-1.636905 0,-0.414394 0.255841,1.569172 0,1.243184 -0.581746,-0.741249 -0.268342,-2.206321 -1.128079,-2.591975 -0.995823,-0.446698 -0.691043,0.610452 -1.511552,-0.247483 -0.45029,-0.470831 1.505449,-0.771157 1.934224,-0.280652 0.895415,1.024327 1.423161,2.325349 2.253832,3.402844 0.448742,0.58208 2.69008,-2.372665 3.196862,-2.488716 0.08218,-0.01881 1.571945,1.129022 2.283099,1.035166 5.246343,-0.692409 9.078835,-2.820225 15.084938,-1.745493 0.822526,0.147182 1.027427,1.510186 1.840804,1.701567 0.832199,0.19581 1.013605,-2.67634 1.570519,-2.027692 0.572037,0.666255 0.107598,1.949685 0.777944,2.516917 0.77312,0.654196 0.929997,-2.839307 0.929997,-0.967594"
       id="path96" />
    <path
       style="fill:none;stroke:#000000;stroke-width:0.264583px;stroke-linecap:butt;stroke-linejoin:miter;stroke-opacity:1"
       d="m 395.29721,163.71666 -0.28269,-3.2419"
       id="path98" />
    <path
       style="fill:none;stroke:#000000;stroke-width:0.264583px;stroke-linecap:butt;stroke-linejoin:miter;stroke-opacity:1"
       d="m 17.723212,62.342275 c 5.163111,-0.180525 5.887419,-2.208657 5.887419,0.523118 0,0.376942 0.10005,-0.801131 0.363363,-1.070853 0.06861,-0.07028 0.942723,0.06801 1.002968,0.06801 1.98859,0 3.977924,0.05432 5.96577,0 1.767081,-0.04828 4.225055,-1.27209 5.662975,-1.106903 0.194368,0.02233 4.297373,-0.671396 4.417735,0.02975 0.694904,4.048133 -22.124719,2.126385 -23.30023,1.556882 -1.636916,-0.793043 3.51847,-1.087967 5.33668,-1.138232 2.365764,-0.0654 4.740582,0.185057 7.100004,0 0.525928,-0.226872 1.051859,-0.453747 1.577787,-0.680622 0,-0.04068 -0.04034,-0.116798 0,-0.122034 4.036163,-0.523729 0.185145,-0.595019 7.528346,-0.388437"
       id="path102" />
    <path
       style="fill:none;stroke:#000000;stroke-width:0.264583px;stroke-linecap:butt;stroke-linejoin:miter;stroke-opacity:1"
       d="m 372.70287,153.32889 2.02018,3.96161"
       id="path104" />
    <path
       style="fill:none;stroke:#000000;stroke-width:0.264583px;stroke-linecap:butt;stroke-linejoin:miter;stroke-opacity:1"
       d="m 25.039905,52.445816 c 4.666252,0.321958 2.727327,-0.672049 5.007816,2.25175 0.2257,0.289364 0.169918,-0.792679 0.4783,-0.991606 0.589934,-0.38055 1.36216,-0.878173 2.026627,-1.309253 4.789061,-3.106952 -14.46546,6.649225 -7.512743,0.04911 0.15809,-0.150072 5.058309,-0.133662 6.684356,-0.133662"
       id="path106" />
  </g>
</svg>
